<?xml version="1.0" encoding="UTF-8"?>
<svg version="1.1" xmlns="http://www.w3.org/2000/svg" width="16" height="16">
<path d="M0 0 C5.28 0 10.56 0 16 0 C16 4.95 16 9.9 16 15 C10.72 15 5.44 15 0 15 C0 10.05 0 5.1 0 0 Z " fill="#FEF8F8" transform="translate(0,1)"/>
<path d="M0 0 C0.804375 0.495 0.804375 0.495 1.625 1 C4.5391061 2.22699204 6.86867708 2.14233286 10 2 C9.1875 4.9375 9.1875 4.9375 8 8 C7.01 8.33 6.02 8.66 5 9 C5 9.66 5 10.32 5 11 C3.35 11 1.7 11 0 11 C-0.33 11.66 -0.66 12.32 -1 13 C-1 12.34 -1 11.68 -1 11 C-1.66 11 -2.32 11 -3 11 C-3.08096803 9.54257537 -3.13917774 8.08387193 -3.1875 6.625 C-3.22230469 5.81289062 -3.25710937 5.00078125 -3.29296875 4.1640625 C-3.19628906 3.44992187 -3.09960938 2.73578125 -3 2 C-2.01 1.34 -1.02 0.68 0 0 Z " fill="#E9B1AF" transform="translate(5,2)"/>
<path d="M0 0 C0.804375 0.495 0.804375 0.495 1.625 1 C4.5391061 2.22699204 6.86867708 2.14233286 10 2 C9.34 3.98 8.68 5.96 8 8 C7.67 7.34 7.34 6.68 7 6 C6.01 6.33 5.02 6.66 4 7 C1.3125 6.0625 1.3125 6.0625 -1 5 C-0.67 3.35 -0.34 1.7 0 0 Z " fill="#FAB6B3" transform="translate(5,2)"/>
<path d="M0 0 C1.65 0 3.3 0 5 0 C5 4.95 5 9.9 5 15 C2.69 15 0.38 15 -2 15 C-1.175 14.13375 -0.35 13.2675 0.5 12.375 C2.52323532 9.94366892 2.98925109 9.06852433 3.5 5.8125 C2.96202116 2.78636901 2.4201303 1.81509772 0 0 Z " fill="#FEF9FA" transform="translate(11,1)"/>
<path d="M0 0 C0.625 1.8125 0.625 1.8125 1 4 C-0.87979752 6.81969628 -2.22169694 8.17673862 -5 10 C-5.66 10 -6.32 10 -7 10 C-7 7 -7 7 -5.625 5.4375 C-5.08875 4.963125 -4.5525 4.48875 -4 4 C-3.34 3.34 -2.68 2.68 -2 2 C-1.67 2.33 -1.34 2.66 -1 3 C-0.67 2.01 -0.34 1.02 0 0 Z " fill="#F8D6D8" transform="translate(14,6)"/>
<path d="M0 0 C3.625 0.25 3.625 0.25 5.5625 1.75 C5.913125 2.245 6.26375 2.74 6.625 3.25 C3.75 3.875 3.75 3.875 0.625 4.25 C-0.035 3.59 -0.695 2.93 -1.375 2.25 C-2.035 2.91 -2.695 3.57 -3.375 4.25 C-3.705 3.26 -4.035 2.27 -4.375 1.25 C-3.375 0.25 -3.375 0.25 0 0 Z " fill="#FEEDEC" transform="translate(7.375,0.75)"/>
<path d="M0 0 C0 1.66666667 0 3.33333333 0 5 C-1.65 5 -3.3 5 -5 5 C-4.1875 3.0625 -4.1875 3.0625 -3 1 C-2.01 0.67 -1.02 0.34 0 0 Z " fill="#DF8E8B" transform="translate(10,8)"/>
</svg>
